Made in Jersey S01E01 HDTV x264-2HD [MyTV]

Screenshots:
 
http://imageshack.us/a/img641/1628/vlcsnap2012092911h28m56.png 
http://imageshack.us/a/img89/1531/vlcsnap2012092911h29m00.png 
http://imageshack.us/a/img62/1153/vlcsnap2012092911h29m11.png

NFO:

Format : MPEG-4
Format profile : Base Media
Codec ID : isom
File size : 264 MiB
Duration : 42mn 2s
Overall bit rate mode : Variable
Overall bit rate : 878 Kbps
Encoded date : UTC 2012-09-29 02:10:35
Tagged date : UTC 2012-09-29 02:10:35

Video
ID : 1
Format : AVC
Format/Info : Advanced Video Codec
Format profile : High@L3.1
Format settings, CABAC : Yes
Format settings, ReFrames : 5 frames
Codec ID : avc1
Codec ID/Info : Advanced Video Coding
Duration : 42mn 2s
Bit rate : 755 Kbps
Maximum bit rate : 3 510 Kbps
Width : 720 pixels
Height : 404 pixels
Display aspect ratio : 16:9
Frame rate mode : Constant
Frame rate : 23.976 fps
Color space : YUV
Chroma subsampling : 4:2:0
Bit depth : 8 bits
Scan type : Progressive
Bits/(Pixel*Frame) : 0.108
Stream size : 227 MiB (86%)
Writing library : x264 core 125 r2208 d9d2288
Encoding settings : cabac=1 / ref=5 / deblock=1:0:0 / analyse=0x3:0x113 / me=umh / subme=8 / psy=1 / psy_rd=1.00:0.00 / mixed_ref=1 / me_range=16 / chroma_me=1 / trellis=1 / 8x8dct=1 / cqm=0 / deadzone=21,11 / fast_pskip=1 / chroma_qp_offset=-2 / threads=24 / lookahead_threads=4 / sliced_threads=0 / nr=0 / decimate=1 / interlaced=0 / bluray_compat=0 / constrained_intra=0 / bframes=3 / b_pyramid=2 / b_adapt=2 / b_bias=0 / direct=3 / weightb=1 / open_gop=0 / weightp=2 / keyint=250 / keyint_min=23 / scenecut=40 / intra_refresh=0 / rc_lookahead=50 / rc=crf / mbtree=1 / crf=19.0 / qcomp=0.60 / qpmin=0 / qpmax=69 / qpstep=4 / ip_ratio=1.40 / aq=1:1.00
Encoded date : UTC 2012-09-29 01:37:37
Tagged date : UTC 2012-09-29 02:10:37
Matrix coefficients : BT.709

Audio
ID : 2
Format : AAC
Format/Info : Advanced Audio Codec
Format profile : LC
Codec ID : 40
Duration : 42mn 2s
Bit rate mode : Variable
Bit rate : 120 Kbps
Maximum bit rate : 147 Kbps
Channel(s) : 2 channels
Channel positions : Front: L R
Sampling rate : 48.0 KHz
Compression mode : Lossy
Delay relative to video : 83ms
Stream size : 35.9 MiB (14%)
Encoded date : UTC 2012-09-29 02:10:36
Tagged date : UTC 2012-09-29 02:10:37
